<?xml version="1.0" standalone="no"?><!-- Generator: Gravit.io --><svg xmlns="http://www.w3.org/2000/svg" xmlns:xlink="http://www.w3.org/1999/xlink" style="isolation:isolate" viewBox="0 0 256 256" width="256" height="256"><defs><clipPath id="_clipPath_9sy2Nl89O00dkac9GTzJ33v9xYtQ7HHF"><rect width="256" height="256"/></clipPath></defs><g clip-path="url(#_clipPath_9sy2Nl89O00dkac9GTzJ33v9xYtQ7HHF)"><rect width="256" height="256" style="fill:rgb(0,0,0)"/><clipPath id="_clipPath_vt11WJMClw6TOUhegXsP9F4mOoIbjda2"><rect x="0" y="0" width="256" height="256" transform="matrix(1,0,0,1,0,0)" fill="rgb(255,255,255)"/></clipPath><g clip-path="url(#_clipPath_vt11WJMClw6TOUhegXsP9F4mOoIbjda2)"><g><rect x="0" y="0" width="256" height="256" transform="matrix(1,0,0,1,0,0)" fill="none"/><path d=" M 216.848 179.296 L 128 230.593 L 39.152 179.296 L 39.152 76.704 L 128 25.407 L 216.848 76.704 L 216.848 179.296 Z " fill="rgb(255,255,255)"/><path d=" M 53 85 L 53 172 L 84 189 L 84 139 L 128 166 L 173 139 L 173 189 L 203 172 L 203 85 L 128 128 L 53 85 Z " fill="rgb(0,0,0)" vector-effect="non-scaling-stroke" stroke-width="1" stroke="rgb(0,0,0)" stroke-opacity="100" stroke-linejoin="miter" stroke-linecap="square" stroke-miterlimit="3"/></g></g></g></svg>